<svg id="Layer_2" data-name="Layer 2" xmlns="http://www.w3.org/2000/svg" width="56.557" height="65.185" viewBox="0 0 56.557 65.185">
  <g id="Layer_1" data-name="Layer 1" transform="translate(1.5 0)">
    <path id="Path_1" data-name="Path 1" d="M20.842,49.812C34.871,63.873,17.925,70.6,16.358,62.882,15.183,57.038,4.08,47.03,18.5,33.625c7.554-7.018,23,26.251,21.015,23.037C27.061,36.479,5.751,34.7,20.842,49.812Z" transform="translate(-3.44 -6.551)" fill="#fff"/>
    <path id="Path_2" data-name="Path 2" d="M30.011,35.906C15.983,21.845,32.937,15.122,34.5,22.836c1.183,5.843,12.286,15.851-2.142,29.256C24.807,59.087,9.364,25.81,11.346,29.023,23.824,49.207,45.111,50.99,30.011,35.906Z" transform="translate(-3.441 -3.931)" fill="#fff"/>
    <path id="Path_3" data-name="Path 3" d="M31.344,67.819c11.191-1.111,8.074,8.745,4.117,6.651-2.982-1.6-11.359-.3-12.062-11.431-.368-5.835,19.768-.671,17.642-.951C27.723,60.305,19.29,69.018,31.344,67.819Z" transform="translate(-5.893 -12.088)" fill="#fff"/>
    <circle id="Ellipse_1" data-name="Ellipse 1" cx="2.926" cy="2.926" r="2.926" transform="translate(33.237 47.162)" fill="#fff"/>
    <circle id="Ellipse_2" data-name="Ellipse 2" cx="1.463" cy="1.463" r="1.463" transform="translate(5.939 22.79)" fill="#fff"/>
    <path id="Path_4" data-name="Path 4" d="M11.731,42.449c2.75-10.919,10.967-4.636,7.658-1.6-2.5,2.27-4.141,10.584-14.852,7.466-5.6-1.6,6.075-18.817,5.092-16.922C3.434,43.3,8.766,54.183,11.731,42.449Z" transform="translate(-1.803 -6.27)" fill="#fff"/>
    <path id="Path_5" data-name="Path 5" d="M50.46,35.983c2.278,11.023-7.858,8.953-6.187,4.8,1.255-3.125-.9-11.327,10.136-13.2,5.763-.975,2.742,19.592,2.8,17.45C57.55,31.6,48.014,24.128,50.46,35.983Z" transform="translate(-10.045 -5.527)" fill="#fff"/>
    <path id="Path_6" data-name="Path 6" d="M61.289,31.833c4.237-.8,3.373,3.07,1.8,2.4-1.191-.5-4.348.256-4.98-4-.336-2.214,7.514-.911,6.7-.951C59.666,29.084,56.732,32.689,61.289,31.833Z" transform="translate(-12.856 -5.806)" fill="#fff"/>
    <circle id="Ellipse_3" data-name="Ellipse 3" cx="26.778" cy="26.778" r="26.778" transform="translate(0 10.128)" fill="none" stroke="#fff" stroke-miterlimit="10" stroke-width="3"/>
    <path id="Path_7" data-name="Path 7" d="M32.993,22.079C36.271,25.421,19.556,7.907,14.72,11.688s0,18.937,1.071,21.671c.8,1.99-10.344-21.015-5.508-24.78S24.832,13.79,32.993,22.079Z" transform="translate(-3.017 -1.544)" fill="#fff"/>
    <circle id="Ellipse_4" data-name="Ellipse 4" cx="2.926" cy="2.926" r="2.926" transform="translate(22.046)" fill="#fff"/>
    <path id="Path_8" data-name="Path 8" d="M39.154,59.938C35.877,56.6,52.591,74.111,57.427,70.33s0-18.945-1.071-21.671c-.8-1.99,10.344,21.015,5.508,24.78S47.3,68.22,39.154,59.938Z" transform="translate(-8.97 -9.739)" fill="#fff"/>
  </g>
</svg>
